<svg xmlns="http://www.w3.org/2000/svg" viewBox="0 0 230 230" role="img" aria-label="Adana logo placeholder: cross-stitched plate">
<path d="M0 0V230M0 0H230M10 0V230M0 10H230M20 0V230M0 20H230M30 0V230M0 30H230M40 0V230M0 40H230M50 0V230M0 50H230M60 0V230M0 60H230M70 0V230M0 70H230M80 0V230M0 80H230M90 0V230M0 90H230M100 0V230M0 100H230M110 0V230M0 110H230M120 0V230M0 120H230M130 0V230M0 130H230M140 0V230M0 140H230M150 0V230M0 150H230M160 0V230M0 160H230M170 0V230M0 170H230M180 0V230M0 180H230M190 0V230M0 190H230M200 0V230M0 200H230M210 0V230M0 210H230M220 0V230M0 220H230M230 0V230M0 230H230" stroke="var(--logo-ink,#26241F)" stroke-opacity="0.07" stroke-width="0.6" fill="none"/>
<path d="M1.9 1.9L8.1 8.1M1.9 8.1L8.1 1.9M1.9 21.9L8.1 28.1M1.9 28.1L8.1 21.9M1.9 41.9L8.1 48.1M1.9 48.1L8.1 41.9M1.9 61.9L8.1 68.1M1.9 68.1L8.1 61.9M1.9 81.9L8.1 88.1M1.9 88.1L8.1 81.9M1.9 101.9L8.1 108.1M1.9 108.1L8.1 101.9M1.9 121.9L8.1 128.1M1.9 128.1L8.1 121.9M1.9 141.9L8.1 148.1M1.9 148.1L8.1 141.9M1.9 161.9L8.1 168.1M1.9 168.1L8.1 161.9M1.9 181.9L8.1 188.1M1.9 188.1L8.1 181.9M1.9 201.9L8.1 208.1M1.9 208.1L8.1 201.9M1.9 221.9L8.1 228.1M1.9 228.1L8.1 221.9M21.9 1.9L28.1 8.1M21.9 8.1L28.1 1.9M21.9 221.9L28.1 228.1M21.9 228.1L28.1 221.9M31.9 91.9L38.1 98.1M31.9 98.1L38.1 91.9M31.9 101.9L38.1 108.1M31.9 108.1L38.1 101.9M31.9 111.9L38.1 118.1M31.9 118.1L38.1 111.9M31.9 121.9L38.1 128.1M31.9 128.1L38.1 121.9M31.9 131.9L38.1 138.1M31.9 138.1L38.1 131.9M41.9 1.9L48.1 8.1M41.9 8.1L48.1 1.9M41.9 71.9L48.1 78.1M41.9 78.1L48.1 71.9M41.9 151.9L48.1 158.1M41.9 158.1L48.1 151.9M41.9 221.9L48.1 228.1M41.9 228.1L48.1 221.9M51.9 61.9L58.1 68.1M51.9 68.1L58.1 61.9M51.9 161.9L58.1 168.1M51.9 168.1L58.1 161.9M61.9 1.9L68.1 8.1M61.9 8.1L68.1 1.9M61.9 51.9L68.1 58.1M61.9 58.1L68.1 51.9M61.9 171.9L68.1 178.1M61.9 178.1L68.1 171.9M61.9 221.9L68.1 228.1M61.9 228.1L68.1 221.9M71.9 41.9L78.1 48.1M71.9 48.1L78.1 41.9M71.9 181.9L78.1 188.1M71.9 188.1L78.1 181.9M81.9 1.9L88.1 8.1M81.9 8.1L88.1 1.9M81.9 221.9L88.1 228.1M81.9 228.1L88.1 221.9M91.9 31.9L98.1 38.1M91.9 38.1L98.1 31.9M91.9 111.9L98.1 118.1M91.9 118.1L98.1 111.9M91.9 191.9L98.1 198.1M91.9 198.1L98.1 191.9M101.9 1.9L108.1 8.1M101.9 8.1L108.1 1.9M101.9 31.9L108.1 38.1M101.9 38.1L108.1 31.9M101.9 101.9L108.1 108.1M101.9 108.1L108.1 101.9M101.9 121.9L108.1 128.1M101.9 128.1L108.1 121.9M101.9 191.9L108.1 198.1M101.9 198.1L108.1 191.9M101.9 221.9L108.1 228.1M101.9 228.1L108.1 221.9M111.9 31.9L118.1 38.1M111.9 38.1L118.1 31.9M111.9 91.9L118.1 98.1M111.9 98.1L118.1 91.9M111.9 131.9L118.1 138.1M111.9 138.1L118.1 131.9M111.9 191.9L118.1 198.1M111.9 198.1L118.1 191.9M121.9 1.9L128.1 8.1M121.9 8.1L128.1 1.9M121.9 31.9L128.1 38.1M121.9 38.1L128.1 31.9M121.9 101.9L128.1 108.1M121.9 108.1L128.1 101.9M121.9 121.9L128.1 128.1M121.9 128.1L128.1 121.9M121.9 191.9L128.1 198.1M121.9 198.1L128.1 191.9M121.9 221.9L128.1 228.1M121.9 228.1L128.1 221.9M131.9 31.9L138.1 38.1M131.9 38.1L138.1 31.9M131.9 111.9L138.1 118.1M131.9 118.1L138.1 111.9M131.9 191.9L138.1 198.1M131.9 198.1L138.1 191.9M141.9 1.9L148.1 8.1M141.9 8.1L148.1 1.9M141.9 221.9L148.1 228.1M141.9 228.1L148.1 221.9M151.9 41.9L158.1 48.1M151.9 48.1L158.1 41.9M151.9 181.9L158.1 188.1M151.9 188.1L158.1 181.9M161.9 1.9L168.1 8.1M161.9 8.1L168.1 1.9M161.9 51.9L168.1 58.1M161.9 58.1L168.1 51.9M161.9 171.9L168.1 178.1M161.9 178.1L168.1 171.9M161.9 221.9L168.1 228.1M161.9 228.1L168.1 221.9M171.9 61.9L178.1 68.1M171.9 68.1L178.1 61.9M171.9 161.9L178.1 168.1M171.9 168.1L178.1 161.9M181.9 1.9L188.1 8.1M181.9 8.1L188.1 1.9M181.9 71.9L188.1 78.1M181.9 78.1L188.1 71.9M181.9 151.9L188.1 158.1M181.9 158.1L188.1 151.9M181.9 221.9L188.1 228.1M181.9 228.1L188.1 221.9M191.9 91.9L198.1 98.1M191.9 98.1L198.1 91.9M191.9 101.9L198.1 108.1M191.9 108.1L198.1 101.9M191.9 111.9L198.1 118.1M191.9 118.1L198.1 111.9M191.9 121.9L198.1 128.1M191.9 128.1L198.1 121.9M191.9 131.9L198.1 138.1M191.9 138.1L198.1 131.9M201.9 1.9L208.1 8.1M201.9 8.1L208.1 1.9M201.9 221.9L208.1 228.1M201.9 228.1L208.1 221.9M221.9 1.9L228.1 8.1M221.9 8.1L228.1 1.9M221.9 21.9L228.1 28.1M221.9 28.1L228.1 21.9M221.9 41.9L228.1 48.1M221.9 48.1L228.1 41.9M221.9 61.9L228.1 68.1M221.9 68.1L228.1 61.9M221.9 81.9L228.1 88.1M221.9 88.1L228.1 81.9M221.9 101.9L228.1 108.1M221.9 108.1L228.1 101.9M221.9 121.9L228.1 128.1M221.9 128.1L228.1 121.9M221.9 141.9L228.1 148.1M221.9 148.1L228.1 141.9M221.9 161.9L228.1 168.1M221.9 168.1L228.1 161.9M221.9 181.9L228.1 188.1M221.9 188.1L228.1 181.9M221.9 201.9L228.1 208.1M221.9 208.1L228.1 201.9M221.9 221.9L228.1 228.1M221.9 228.1L228.1 221.9" stroke="var(--logo-ink,#26241F)" stroke-width="1.7" stroke-linecap="round" fill="none"/>
<path d="M11.9 81.9L18.1 88.1M11.9 88.1L18.1 81.9M11.9 91.9L18.1 98.1M11.9 98.1L18.1 91.9M11.9 101.9L18.1 108.1M11.9 108.1L18.1 101.9M11.9 111.9L18.1 118.1M11.9 118.1L18.1 111.9M11.9 121.9L18.1 128.1M11.9 128.1L18.1 121.9M11.9 131.9L18.1 138.1M11.9 138.1L18.1 131.9M11.9 141.9L18.1 148.1M11.9 148.1L18.1 141.9M21.9 61.9L28.1 68.1M21.9 68.1L28.1 61.9M21.9 71.9L28.1 78.1M21.9 78.1L28.1 71.9M21.9 81.9L28.1 88.1M21.9 88.1L28.1 81.9M21.9 91.9L28.1 98.1M21.9 98.1L28.1 91.9M21.9 101.9L28.1 108.1M21.9 108.1L28.1 101.9M21.9 111.9L28.1 118.1M21.9 118.1L28.1 111.9M21.9 121.9L28.1 128.1M21.9 128.1L28.1 121.9M21.9 131.9L28.1 138.1M21.9 138.1L28.1 131.9M21.9 141.9L28.1 148.1M21.9 148.1L28.1 141.9M21.9 151.9L28.1 158.1M21.9 158.1L28.1 151.9M21.9 161.9L28.1 168.1M21.9 168.1L28.1 161.9M31.9 51.9L38.1 58.1M31.9 58.1L38.1 51.9M31.9 61.9L38.1 68.1M31.9 68.1L38.1 61.9M31.9 161.9L38.1 168.1M31.9 168.1L38.1 161.9M31.9 171.9L38.1 178.1M31.9 178.1L38.1 171.9M41.9 41.9L48.1 48.1M41.9 48.1L48.1 41.9M41.9 51.9L48.1 58.1M41.9 58.1L48.1 51.9M41.9 171.9L48.1 178.1M41.9 178.1L48.1 171.9M41.9 181.9L48.1 188.1M41.9 188.1L48.1 181.9M51.9 31.9L58.1 38.1M51.9 38.1L58.1 31.9M51.9 41.9L58.1 48.1M51.9 48.1L58.1 41.9M51.9 181.9L58.1 188.1M51.9 188.1L58.1 181.9M51.9 191.9L58.1 198.1M51.9 198.1L58.1 191.9M61.9 21.9L68.1 28.1M61.9 28.1L68.1 21.9M61.9 31.9L68.1 38.1M61.9 38.1L68.1 31.9M61.9 191.9L68.1 198.1M61.9 198.1L68.1 191.9M61.9 201.9L68.1 208.1M61.9 208.1L68.1 201.9M71.9 21.9L78.1 28.1M71.9 28.1L78.1 21.9M71.9 111.9L78.1 118.1M71.9 118.1L78.1 111.9M71.9 201.9L78.1 208.1M71.9 208.1L78.1 201.9M81.9 11.9L88.1 18.1M81.9 18.1L88.1 11.9M81.9 21.9L88.1 28.1M81.9 28.1L88.1 21.9M81.9 101.9L88.1 108.1M81.9 108.1L88.1 101.9M81.9 121.9L88.1 128.1M81.9 128.1L88.1 121.9M81.9 201.9L88.1 208.1M81.9 208.1L88.1 201.9M81.9 211.9L88.1 218.1M81.9 218.1L88.1 211.9M91.9 11.9L98.1 18.1M91.9 18.1L98.1 11.9M91.9 21.9L98.1 28.1M91.9 28.1L98.1 21.9M91.9 91.9L98.1 98.1M91.9 98.1L98.1 91.9M91.9 131.9L98.1 138.1M91.9 138.1L98.1 131.9M91.9 201.9L98.1 208.1M91.9 208.1L98.1 201.9M91.9 211.9L98.1 218.1M91.9 218.1L98.1 211.9M101.9 11.9L108.1 18.1M101.9 18.1L108.1 11.9M101.9 21.9L108.1 28.1M101.9 28.1L108.1 21.9M101.9 81.9L108.1 88.1M101.9 88.1L108.1 81.9M101.9 141.9L108.1 148.1M101.9 148.1L108.1 141.9M101.9 201.9L108.1 208.1M101.9 208.1L108.1 201.9M101.9 211.9L108.1 218.1M101.9 218.1L108.1 211.9M111.9 11.9L118.1 18.1M111.9 18.1L118.1 11.9M111.9 21.9L118.1 28.1M111.9 28.1L118.1 21.9M111.9 71.9L118.1 78.1M111.9 78.1L118.1 71.9M111.9 111.9L118.1 118.1M111.9 118.1L118.1 111.9M111.9 151.9L118.1 158.1M111.9 158.1L118.1 151.9M111.9 201.9L118.1 208.1M111.9 208.1L118.1 201.9M111.9 211.9L118.1 218.1M111.9 218.1L118.1 211.9M121.9 11.9L128.1 18.1M121.9 18.1L128.1 11.9M121.9 21.9L128.1 28.1M121.9 28.1L128.1 21.9M121.9 81.9L128.1 88.1M121.9 88.1L128.1 81.9M121.9 141.9L128.1 148.1M121.9 148.1L128.1 141.9M121.9 201.9L128.1 208.1M121.9 208.1L128.1 201.9M121.9 211.9L128.1 218.1M121.9 218.1L128.1 211.9M131.9 11.9L138.1 18.1M131.9 18.1L138.1 11.9M131.9 21.9L138.1 28.1M131.9 28.1L138.1 21.9M131.9 91.9L138.1 98.1M131.9 98.1L138.1 91.9M131.9 131.9L138.1 138.1M131.9 138.1L138.1 131.9M131.9 201.9L138.1 208.1M131.9 208.1L138.1 201.9M131.9 211.9L138.1 218.1M131.9 218.1L138.1 211.9M141.9 11.9L148.1 18.1M141.9 18.1L148.1 11.9M141.9 21.9L148.1 28.1M141.9 28.1L148.1 21.9M141.9 101.9L148.1 108.1M141.9 108.1L148.1 101.9M141.9 121.9L148.1 128.1M141.9 128.1L148.1 121.9M141.9 201.9L148.1 208.1M141.9 208.1L148.1 201.9M141.9 211.9L148.1 218.1M141.9 218.1L148.1 211.9M151.9 21.9L158.1 28.1M151.9 28.1L158.1 21.9M151.9 111.9L158.1 118.1M151.9 118.1L158.1 111.9M151.9 201.9L158.1 208.1M151.9 208.1L158.1 201.9M161.9 21.9L168.1 28.1M161.9 28.1L168.1 21.9M161.9 31.9L168.1 38.1M161.9 38.1L168.1 31.9M161.9 191.9L168.1 198.1M161.9 198.1L168.1 191.9M161.9 201.9L168.1 208.1M161.9 208.1L168.1 201.9M171.9 31.9L178.1 38.1M171.9 38.1L178.1 31.9M171.9 41.9L178.1 48.1M171.9 48.1L178.1 41.9M171.9 181.9L178.1 188.1M171.9 188.1L178.1 181.9M171.9 191.9L178.1 198.1M171.9 198.1L178.1 191.9M181.9 41.9L188.1 48.1M181.9 48.1L188.1 41.9M181.9 51.9L188.1 58.1M181.9 58.1L188.1 51.9M181.9 171.9L188.1 178.1M181.9 178.1L188.1 171.9M181.9 181.9L188.1 188.1M181.9 188.1L188.1 181.9M191.9 51.9L198.1 58.1M191.9 58.1L198.1 51.9M191.9 61.9L198.1 68.1M191.9 68.1L198.1 61.9M191.9 161.9L198.1 168.1M191.9 168.1L198.1 161.9M191.9 171.9L198.1 178.1M191.9 178.1L198.1 171.9M201.9 61.9L208.1 68.1M201.9 68.1L208.1 61.9M201.9 71.9L208.1 78.1M201.9 78.1L208.1 71.9M201.9 81.9L208.1 88.1M201.9 88.1L208.1 81.9M201.9 91.9L208.1 98.1M201.9 98.1L208.1 91.9M201.9 101.9L208.1 108.1M201.9 108.1L208.1 101.9M201.9 111.9L208.1 118.1M201.9 118.1L208.1 111.9M201.9 121.9L208.1 128.1M201.9 128.1L208.1 121.9M201.9 131.9L208.1 138.1M201.9 138.1L208.1 131.9M201.9 141.9L208.1 148.1M201.9 148.1L208.1 141.9M201.9 151.9L208.1 158.1M201.9 158.1L208.1 151.9M201.9 161.9L208.1 168.1M201.9 168.1L208.1 161.9M211.9 81.9L218.1 88.1M211.9 88.1L218.1 81.9M211.9 91.9L218.1 98.1M211.9 98.1L218.1 91.9M211.9 101.9L218.1 108.1M211.9 108.1L218.1 101.9M211.9 111.9L218.1 118.1M211.9 118.1L218.1 111.9M211.9 121.9L218.1 128.1M211.9 128.1L218.1 121.9M211.9 131.9L218.1 138.1M211.9 138.1L218.1 131.9M211.9 141.9L218.1 148.1M211.9 148.1L218.1 141.9" stroke="var(--logo-accent,#6E7F5C)" stroke-width="1.7" stroke-linecap="round" fill="none"/>
</svg>